# Blender 5.1.2
# www.blender.org
o Cube
v -0.760298 -0.760298 0.760298
v -0.760298 0.760298 0.760298
v -0.760298 -0.760298 -0.760298
v -0.760298 0.760298 -0.760298
v 0.760298 -0.760298 0.760298
v 0.760298 0.760298 0.760298
v 0.760298 -0.760298 -0.760298
v 0.760298 0.760298 -0.760298
v -0.931171 -0.931171 0.000000
v -0.931171 0.000000 0.931171
v -0.931171 0.931171 0.000000
v -0.931171 0.000000 -0.931171
v 0.000000 -0.931171 -0.931171
v 0.000000 0.931171 -0.931171
v 0.931171 0.000000 -0.931171
v 0.931171 -0.931171 0.000000
v 0.931171 0.931171 0.000000
v 0.931171 0.000000 0.931171
v 0.000000 -0.931171 0.931171
v 0.000000 0.931171 0.931171
v 0.000000 1.316875 0.000000
v 0.000000 -1.316875 0.000000
v 0.000000 0.000000 1.316875
v 1.316875 0.000000 0.000000
v 0.000000 0.000000 -1.316875
v -1.316875 0.000000 0.000000
v -0.877916 -0.877916 0.438958
v -0.877916 0.438958 0.877916
v -0.877916 0.877916 -0.438958
v -0.877916 -0.438958 -0.877916
v -0.438958 -0.877916 -0.877916
v 0.438958 0.877916 -0.877916
v 0.877916 -0.438958 -0.877916
v 0.877916 -0.877916 -0.438958
v 0.877916 0.877916 0.438958
v 0.877916 -0.438958 0.877916
v 0.438958 -0.877916 0.877916
v -0.438958 0.877916 0.877916
v -0.877916 -0.877916 -0.438958
v -0.877916 -0.438958 0.877916
v -0.877916 0.877916 0.438958
v -0.877916 0.438958 -0.877916
v 0.438958 -0.877916 -0.877916
v -0.438958 0.877916 -0.877916
v 0.877916 0.438958 -0.877916
v 0.877916 -0.877916 0.438958
v 0.877916 0.877916 -0.438958
v 0.877916 0.438958 0.877916
v -0.438958 -0.877916 0.877916
v 0.438958 0.877916 0.877916
v 0.000000 1.177848 0.588924
v 0.000000 1.177848 -0.588924
v 0.588924 1.177848 0.000000
v -0.588924 1.177848 0.000000
v 0.000000 -1.177848 0.588924
v 0.000000 -1.177848 -0.588924
v -0.588924 -1.177848 0.000000
v 0.588924 -1.177848 0.000000
v -0.588924 0.000000 1.177848
v 0.588924 0.000000 1.177848
v 0.000000 -0.588924 1.177848
v 0.000000 0.588924 1.177848
v 1.177848 0.000000 0.588924
v 1.177848 0.000000 -0.588924
v 1.177848 -0.588924 0.000000
v 1.177848 0.588924 0.000000
v 0.588924 0.000000 -1.177848
v -0.588924 0.000000 -1.177848
v 0.000000 -0.588924 -1.177848
v 0.000000 0.588924 -1.177848
v -1.177848 0.000000 -0.588924
v -1.177848 0.000000 0.588924
v -1.177848 -0.588924 0.000000
v -1.177848 0.588924 0.000000
v -1.075224 0.537612 0.537612
v -1.075224 -0.537612 0.537612
v -1.075224 -0.537612 -0.537612
v -0.537612 0.537612 -1.075224
v -0.537612 -0.537612 -1.075224
v 0.537612 -0.537612 -1.075224
v 1.075224 0.537612 -0.537612
v 1.075224 -0.537612 -0.537612
v 1.075224 -0.537612 0.537612
v 0.537612 0.537612 1.075224
v 0.537612 -0.537612 1.075224
v -0.537612 -0.537612 1.075224
v 0.537612 -1.075224 -0.537612
v -0.537612 -1.075224 -0.537612
v -0.537612 -1.075224 0.537612
v -0.537612 1.075224 -0.537612
v 0.537612 1.075224 -0.537612
v 0.537612 1.075224 0.537612
v -0.537612 1.075224 0.537612
v 0.537612 -1.075224 0.537612
v -0.537612 0.537612 1.075224
v 1.075224 0.537612 0.537612
v 0.537612 0.537612 -1.075224
v -1.075224 0.537612 -0.537612
vn -0.5774 -0.5774 0.5774
vn -0.5774 0.5774 0.5774
vn -0.5774 -0.5774 -0.5774
vn -0.5774 0.5774 -0.5774
vn 0.5774 -0.5774 0.5774
vn 0.5774 0.5774 0.5774
vn 0.5774 -0.5774 -0.5774
vn 0.5774 0.5774 -0.5774
vn -0.7071 -0.7071 -0.0000
vn -0.7071 -0.0000 0.7071
vn -0.7071 0.7071 -0.0000
vn -0.7071 -0.0000 -0.7071
vn -0.0000 -0.7071 -0.7071
vn -0.0000 0.7071 -0.7071
vn 0.7071 -0.0000 -0.7071
vn 0.7071 -0.7071 -0.0000
vn 0.7071 0.7071 -0.0000
vn 0.7071 -0.0000 0.7071
vn -0.0000 -0.7071 0.7071
vn -0.0000 0.7071 0.7071
vn -0.0000 1.0000 -0.0000
vn -0.0000 -1.0000 -0.0000
vn -0.0000 -0.0000 1.0000
vn 1.0000 -0.0000 -0.0000
vn -0.0000 -0.0000 -1.0000
vn -1.0000 -0.0000 -0.0000
vn -0.6695 -0.6695 0.3219
vn -0.6695 0.3219 0.6695
vn -0.6695 0.6695 -0.3219
vn -0.6695 -0.3219 -0.6695
vn -0.3219 -0.6695 -0.6695
vn 0.3219 0.6695 -0.6695
vn 0.6695 -0.3219 -0.6695
vn 0.6695 -0.6695 -0.3219
vn 0.6695 0.6695 0.3219
vn 0.6695 -0.3219 0.6695
vn 0.3219 -0.6695 0.6695
vn -0.3219 0.6695 0.6695
vn -0.6695 -0.6695 -0.3219
vn -0.6695 -0.3219 0.6695
vn -0.6695 0.6695 0.3219
vn -0.6695 0.3219 -0.6695
vn 0.3219 -0.6695 -0.6695
vn -0.3219 0.6695 -0.6695
vn 0.6695 0.3219 -0.6695
vn 0.6695 -0.6695 0.3219
vn 0.6695 0.6695 -0.3219
vn 0.6695 0.3219 0.6695
vn -0.3219 -0.6695 0.6695
vn 0.3219 0.6695 0.6695
vn -0.0000 0.9163 0.4004
vn -0.0000 0.9163 -0.4004
vn 0.4004 0.9163 -0.0000
vn -0.4004 0.9163 -0.0000
vn -0.0000 -0.9163 0.4004
vn -0.0000 -0.9163 -0.4004
vn -0.4004 -0.9163 -0.0000
vn 0.4004 -0.9163 -0.0000
vn -0.4004 -0.0000 0.9163
vn 0.4004 -0.0000 0.9163
vn -0.0000 -0.4004 0.9163
vn -0.0000 0.4004 0.9163
vn 0.9163 -0.0000 0.4004
vn 0.9163 -0.0000 -0.4004
vn 0.9163 -0.4004 -0.0000
vn 0.9163 0.4004 -0.0000
vn 0.4004 -0.0000 -0.9163
vn -0.4004 -0.0000 -0.9163
vn -0.0000 -0.4004 -0.9163
vn -0.0000 0.4004 -0.9163
vn -0.9163 -0.0000 -0.4004
vn -0.9163 -0.0000 0.4004
vn -0.9163 -0.4004 -0.0000
vn -0.9163 0.4004 -0.0000
vn -0.8472 0.3756 0.3756
vn -0.8472 -0.3756 0.3756
vn -0.8472 -0.3756 -0.3756
vn -0.3756 0.3756 -0.8472
vn -0.3756 -0.3756 -0.8472
vn 0.3756 -0.3756 -0.8472
vn 0.8472 0.3756 -0.3756
vn 0.8472 -0.3756 -0.3756
vn 0.8472 -0.3756 0.3756
vn 0.3756 0.3756 0.8472
vn 0.3756 -0.3756 0.8472
vn -0.3756 -0.3756 0.8472
vn 0.3756 -0.8472 -0.3756
vn -0.3756 -0.8472 -0.3756
vn -0.3756 -0.8472 0.3756
vn -0.3756 0.8472 -0.3756
vn 0.3756 0.8472 -0.3756
vn 0.3756 0.8472 0.3756
vn -0.3756 0.8472 0.3756
vn 0.3756 -0.8472 0.3756
vn -0.3756 0.3756 0.8472
vn 0.8472 0.3756 0.3756
vn 0.3756 0.3756 -0.8472
vn -0.8472 0.3756 -0.3756
vt 0.562500 0.187500
vt 0.625000 0.187500
vt 0.625000 0.250000
vt 0.562500 0.250000
vt 0.562500 0.437500
vt 0.625000 0.437500
vt 0.625000 0.500000
vt 0.562500 0.500000
vt 0.562500 0.687500
vt 0.625000 0.687500
vt 0.625000 0.750000
vt 0.562500 0.750000
vt 0.562500 0.937500
vt 0.625000 0.937500
vt 0.625000 1.000000
vt 0.562500 1.000000
vt 0.312500 0.687500
vt 0.375000 0.687500
vt 0.375000 0.750000
vt 0.312500 0.750000
vt 0.812500 0.687500
vt 0.875000 0.687500
vt 0.875000 0.750000
vt 0.812500 0.750000
vt 0.687500 0.687500
vt 0.750000 0.687500
vt 0.750000 0.750000
vt 0.687500 0.750000
vt 0.687500 0.562500
vt 0.750000 0.562500
vt 0.750000 0.625000
vt 0.687500 0.625000
vt 0.812500 0.562500
vt 0.875000 0.562500
vt 0.875000 0.625000
vt 0.812500 0.625000
vt 0.187500 0.687500
vt 0.250000 0.687500
vt 0.250000 0.750000
vt 0.187500 0.750000
vt 0.187500 0.562500
vt 0.250000 0.562500
vt 0.250000 0.625000
vt 0.187500 0.625000
vt 0.312500 0.562500
vt 0.375000 0.562500
vt 0.375000 0.625000
vt 0.312500 0.625000
vt 0.437500 0.937500
vt 0.500000 0.937500
vt 0.500000 1.000000
vt 0.437500 1.000000
vt 0.437500 0.812500
vt 0.500000 0.812500
vt 0.500000 0.875000
vt 0.437500 0.875000
vt 0.562500 0.812500
vt 0.625000 0.812500
vt 0.625000 0.875000
vt 0.562500 0.875000
vt 0.437500 0.687500
vt 0.500000 0.687500
vt 0.500000 0.750000
vt 0.437500 0.750000
vt 0.437500 0.562500
vt 0.500000 0.562500
vt 0.500000 0.625000
vt 0.437500 0.625000
vt 0.562500 0.562500
vt 0.625000 0.562500
vt 0.625000 0.625000
vt 0.562500 0.625000
vt 0.437500 0.437500
vt 0.500000 0.437500
vt 0.500000 0.500000
vt 0.437500 0.500000
vt 0.437500 0.312500
vt 0.500000 0.312500
vt 0.500000 0.375000
vt 0.437500 0.375000
vt 0.562500 0.312500
vt 0.625000 0.312500
vt 0.625000 0.375000
vt 0.562500 0.375000
vt 0.437500 0.187500
vt 0.500000 0.187500
vt 0.500000 0.250000
vt 0.437500 0.250000
vt 0.437500 0.062500
vt 0.500000 0.062500
vt 0.500000 0.125000
vt 0.437500 0.125000
vt 0.562500 0.062500
vt 0.625000 0.062500
vt 0.625000 0.125000
vt 0.562500 0.125000
vt 0.500000 0.000000
vt 0.562500 0.000000
vt 0.625000 0.000000
vt 0.375000 0.062500
vt 0.375000 0.125000
vt 0.375000 0.000000
vt 0.437500 0.000000
vt 0.375000 0.187500
vt 0.375000 0.250000
vt 0.375000 0.312500
vt 0.375000 0.375000
vt 0.375000 0.437500
vt 0.375000 0.500000
vt 0.375000 0.812500
vt 0.375000 0.875000
vt 0.375000 0.937500
vt 0.375000 1.000000
vt 0.250000 0.500000
vt 0.312500 0.500000
vt 0.125000 0.562500
vt 0.125000 0.625000
vt 0.125000 0.500000
vt 0.187500 0.500000
vt 0.125000 0.687500
vt 0.125000 0.750000
vt 0.750000 0.500000
vt 0.812500 0.500000
vt 0.875000 0.500000
vt 0.687500 0.500000
s 1
f 98/1/98 29/2/29 4/3/4 42/4/42
f 97/5/97 32/6/32 8/7/8 45/8/45
f 96/9/96 35/10/35 6/11/6 48/12/48
f 95/13/95 38/14/38 2/15/2 28/16/28
f 94/17/94 46/18/46 5/19/5 37/20/37
f 93/21/93 41/22/41 2/23/2 38/24/38
f 92/25/92 51/26/51 20/27/20 50/28/50
f 91/29/91 52/30/52 21/31/21 53/32/53
f 90/33/90 29/34/29 11/35/11 54/36/54
f 89/37/89 55/38/55 19/39/19 49/40/49
f 88/41/88 56/42/56 22/43/22 57/44/57
f 87/45/87 34/46/34 16/47/16 58/48/58
f 86/49/86 59/50/59 10/51/10 40/52/40
f 85/53/85 60/54/60 23/55/23 61/56/61
f 84/57/84 50/58/50 20/59/20 62/60/62
f 83/61/83 63/62/63 18/63/18 36/64/36
f 82/65/82 64/66/64 24/67/24 65/68/65
f 81/69/81 47/70/47 17/71/17 66/72/66
f 80/73/80 67/74/67 15/75/15 33/76/33
f 79/77/79 68/78/68 25/79/25 69/80/69
f 78/81/78 44/82/44 14/83/14 70/84/70
f 77/85/77 71/86/71 12/87/12 30/88/30
f 76/89/76 72/90/72 26/91/26 73/92/73
f 75/93/75 41/94/41 11/95/11 74/96/74
f 72/90/72 75/93/75 74/96/74 26/91/26
f 10/97/10 28/98/28 75/93/75 72/90/72
f 28/98/28 2/99/2 41/94/41 75/93/75
f 27/100/27 76/89/76 73/92/73 9/101/9
f 1/102/1 40/103/40 76/89/76 27/100/27
f 40/103/40 10/97/10 72/90/72 76/89/76
f 39/104/39 77/85/77 30/88/30 3/105/3
f 9/101/9 73/92/73 77/85/77 39/104/39
f 73/92/73 26/91/26 71/86/71 77/85/77
f 68/78/68 78/81/78 70/84/70 25/79/25
f 12/87/12 42/4/42 78/81/78 68/78/68
f 42/4/42 4/3/4 44/82/44 78/81/78
f 31/106/31 79/77/79 69/80/69 13/107/13
f 3/105/3 30/88/30 79/77/79 31/106/31
f 30/88/30 12/87/12 68/78/68 79/77/79
f 43/108/43 80/73/80 33/76/33 7/109/7
f 13/107/13 69/80/69 80/73/80 43/108/43
f 69/80/69 25/79/25 67/74/67 80/73/80
f 64/66/64 81/69/81 66/72/66 24/67/24
f 15/75/15 45/8/45 81/69/81 64/66/64
f 45/8/45 8/7/8 47/70/47 81/69/81
f 34/46/34 82/65/82 65/68/65 16/47/16
f 7/109/7 33/76/33 82/65/82 34/46/34
f 33/76/33 15/75/15 64/66/64 82/65/82
f 46/18/46 83/61/83 36/64/36 5/19/5
f 16/47/16 65/68/65 83/61/83 46/18/46
f 65/68/65 24/67/24 63/62/63 83/61/83
f 60/54/60 84/57/84 62/60/62 23/55/23
f 18/63/18 48/12/48 84/57/84 60/54/60
f 48/12/48 6/11/6 50/58/50 84/57/84
f 37/110/37 85/53/85 61/56/61 19/111/19
f 5/19/5 36/64/36 85/53/85 37/110/37
f 36/64/36 18/63/18 60/54/60 85/53/85
f 49/112/49 86/49/86 40/52/40 1/113/1
f 19/111/19 61/56/61 86/49/86 49/112/49
f 61/56/61 23/55/23 59/50/59 86/49/86
f 56/42/56 87/45/87 58/48/58 22/43/22
f 13/114/13 43/115/43 87/45/87 56/42/56
f 43/115/43 7/109/7 34/46/34 87/45/87
f 39/116/39 88/41/88 57/44/57 9/117/9
f 3/118/3 31/119/31 88/41/88 39/116/39
f 31/119/31 13/114/13 56/42/56 88/41/88
f 27/120/27 89/37/89 49/40/49 1/121/1
f 9/117/9 57/44/57 89/37/89 27/120/27
f 57/44/57 22/43/22 55/38/55 89/37/89
f 52/30/52 90/33/90 54/36/54 21/31/21
f 14/122/14 44/123/44 90/33/90 52/30/52
f 44/123/44 4/124/4 29/34/29 90/33/90
f 47/70/47 91/29/91 53/32/53 17/71/17
f 8/7/8 32/125/32 91/29/91 47/70/47
f 32/125/32 14/122/14 52/30/52 91/29/91
f 35/10/35 92/25/92 50/28/50 6/11/6
f 17/71/17 53/32/53 92/25/92 35/10/35
f 53/32/53 21/31/21 51/26/51 92/25/92
f 51/26/51 93/21/93 38/24/38 20/27/20
f 21/31/21 54/36/54 93/21/93 51/26/51
f 54/36/54 11/35/11 41/22/41 93/21/93
f 55/38/55 94/17/94 37/20/37 19/39/19
f 22/43/22 58/48/58 94/17/94 55/38/55
f 58/48/58 16/47/16 46/18/46 94/17/94
f 59/50/59 95/13/95 28/16/28 10/51/10
f 23/55/23 62/60/62 95/13/95 59/50/59
f 62/60/62 20/59/20 38/14/38 95/13/95
f 63/62/63 96/9/96 48/12/48 18/63/18
f 24/67/24 66/72/66 96/9/96 63/62/63
f 66/72/66 17/71/17 35/10/35 96/9/96
f 67/74/67 97/5/97 45/8/45 15/75/15
f 25/79/25 70/84/70 97/5/97 67/74/67
f 70/84/70 14/83/14 32/6/32 97/5/97
f 71/86/71 98/1/98 42/4/42 12/87/12
f 26/91/26 74/96/74 98/1/98 71/86/71
f 74/96/74 11/95/11 29/2/29 98/1/98
